<svg width="18" height="8" viewBox="0 0 18 8" fill="none" xmlns="http://www.w3.org/2000/svg">
<path fill-rule="evenodd" clip-rule="evenodd" d="M17.2072 4C17.2072 3.72386 16.9833 3.5 16.7072 3.5L0.707155 3.5C0.431013 3.5 0.207155 3.72386 0.207155 4C0.207155 4.27614 0.431013 4.5 0.707155 4.5L16.7072 4.5C16.9833 4.5 17.2072 4.27614 17.2072 4Z" fill="#333333"/>
<path fill-rule="evenodd" clip-rule="evenodd" d="M4.56071 0.146447C4.36544 -0.0488156 4.04886 -0.0488156 3.8536 0.146447L4.76837e-05 4L3.8536 7.85355C4.04886 8.04882 4.36544 8.04882 4.56071 7.85355C4.75597 7.65829 4.75597 7.34171 4.56071 7.14645L1.41426 4L4.56071 0.853554C4.75597 0.658291 4.75597 0.341709 4.56071 0.146447Z" fill="#333333"/>
</svg>
