<svg width="16" height="11" viewBox="0 0 16 11" fill="none" xmlns="http://www.w3.org/2000/svg">
<path d="M6.96387 7.30078L6.96484 7.30176C7.2578 7.54835 7.63462 7.67773 8.02246 7.67773C8.40997 7.67771 8.78703 7.54699 9.08008 7.2998V7.29883L10.0342 6.48926L15.0107 10.5996H0.985352L5.9707 6.45898L6.96387 7.30078ZM15.5996 9.1748L11.1768 5.52051L15.5996 1.76855V9.1748ZM4.8291 5.49121L0.400391 9.16895V1.7373L4.8291 5.49121ZM14.9355 0.400391L8.44922 5.90234V5.90332L8.16211 6.14648L8.13965 6.16211L8.13477 6.16504C8.107 6.18374 8.06664 6.19727 8.02344 6.19727H8.02051C7.95694 6.19727 7.91555 6.17531 7.90234 6.16406L1.09961 0.400391H14.9355Z" stroke="white" stroke-width="0.8"/>
</svg>
