<svg width="18" height="8" viewBox="0 0 18 8" fill="none" xmlns="http://www.w3.org/2000/svg">
<path fill-rule="evenodd" clip-rule="evenodd" d="M0 4C0 3.72386 0.223858 3.5 0.5 3.5L16.5 3.5C16.7761 3.5 17 3.72386 17 4C17 4.27614 16.7761 4.5 16.5 4.5L0.5 4.5C0.223858 4.5 0 4.27614 0 4Z" fill="#333333"/>
<path fill-rule="evenodd" clip-rule="evenodd" d="M12.6464 0.146447C12.8417 -0.0488156 13.1583 -0.0488156 13.3536 0.146447L17.2071 4L13.3536 7.85355C13.1583 8.04882 12.8417 8.04882 12.6464 7.85355C12.4512 7.65829 12.4512 7.34171 12.6464 7.14645L15.7929 4L12.6464 0.853554C12.4512 0.658291 12.4512 0.341709 12.6464 0.146447Z" fill="#333333"/>
</svg>
