<svg width="20" height="19" viewBox="0 0 20 19" fill="none" xmlns="http://www.w3.org/2000/svg">
<path fill-rule="evenodd" clip-rule="evenodd" d="M18.501 18.023H1.477C0.661 18.023 0 17.444 0 16.73V1.292C0 0.579 0.661 0 1.477 0H18.501C19.316 0 19.977 0.579 19.977 1.292V16.73C19.977 17.444 19.316 18.023 18.501 18.023ZM3.462 15.054H6.404V6.917H3.462V15.054ZM4.953 2.995C3.946 2.995 3.289 3.602 3.289 4.401C3.289 5.181 3.927 5.807 4.914 5.807H4.933C5.959 5.807 6.597 5.181 6.597 4.401C6.579 3.602 5.959 2.995 4.953 2.995ZM17.012 10.389C17.012 7.889 15.56 6.726 13.625 6.726C12.063 6.726 11.365 7.515 10.974 8.07V6.917H8.032C8.071 7.681 8.032 15.054 8.032 15.054H10.974V10.51C10.974 10.268 10.993 10.024 11.071 9.851C11.283 9.365 11.768 8.862 12.58 8.862C13.645 8.862 14.07 9.608 14.07 10.702V15.054H17.012V10.389ZM10.954 8.097C10.96 8.088 10.968 8.079 10.974 8.07V8.097H10.954Z" fill="white"/>
</svg>
