<svg width="11" height="16" viewBox="0 0 11 16" fill="none" xmlns="http://www.w3.org/2000/svg">
<path d="M1.96777 1.98828C3.91982 0.00391303 7.08053 0.00395793 9.03223 1.98828C9.89887 2.86957 10.4021 4.16581 10.4873 5.52246C10.5725 6.87893 10.2359 8.23952 9.49707 9.24121L9.49219 9.24902L9.48633 9.25684L5.5 15.1113L1.51367 9.25684L1.50781 9.24902L1.50293 9.24121L1.36914 9.0498C0.723641 8.06991 0.43285 6.7943 0.512695 5.52246C0.59787 4.16581 1.10113 2.86957 1.96777 1.98828ZM5.55371 3.19238C4.26704 3.19238 3.23843 4.2503 3.23828 5.53809C3.23828 6.826 4.26695 7.88477 5.55371 7.88477C6.8404 7.88468 7.86914 6.82595 7.86914 5.53809C7.86899 4.25035 6.84031 3.19247 5.55371 3.19238Z" stroke="white"/>
</svg>
