<svg width="17" height="16" viewBox="0 0 17 16" fill="none" xmlns="http://www.w3.org/2000/svg">
<path d="M3.25684 0.5C3.30017 0.5 3.32388 0.51025 3.34668 0.527344C3.40684 0.572467 3.46008 0.62889 3.50684 0.700195L5.30566 4.11426L5.3125 4.12695C5.35095 4.19541 5.36539 4.26796 5.34375 4.37109C5.31736 4.49645 5.26576 4.58872 5.19141 4.66309L4.36133 5.49414C4.30983 5.54565 4.27103 5.60168 4.24219 5.65527L4.18066 5.7998C4.15544 5.87556 4.12988 5.97562 4.12988 6.08496V6.13184L4.13867 6.17871C4.1959 6.47886 4.31939 6.79753 4.49121 7.12891V7.12793C4.64388 7.43196 4.86884 7.78562 5.15723 8.18359C5.46077 8.60244 5.88133 9.06992 6.4082 9.58594V9.58691C6.92774 10.118 7.40129 10.5432 7.82715 10.8535C8.23207 11.1485 8.58683 11.3776 8.88574 11.5303C9.15794 11.6693 9.41254 11.7779 9.625 11.8203L9.83691 11.8633L9.88574 11.873H9.93457C10.0464 11.873 10.1523 11.8382 10.2031 11.8213C10.2836 11.7944 10.406 11.7443 10.5088 11.6416L10.5117 11.6387L11.4619 10.6719C11.5719 10.5771 11.6885 10.5342 11.833 10.5342C11.9724 10.5342 12.0251 10.5597 12.0332 10.5645L12.1523 10.6357H12.1709L15.3154 12.4922V12.4932C15.4492 12.576 15.4909 12.6495 15.5068 12.709C15.5152 12.7994 15.4941 12.8687 15.4131 12.9502L13.1592 15.1875L13.1494 15.1973L13.1396 15.208C13.0889 15.2643 13.0118 15.3238 12.8955 15.3799C12.8336 15.4098 12.7748 15.4335 12.7188 15.4512L12.5596 15.4883L12.4785 15.4941C12.445 15.4975 12.3894 15.5 12.3076 15.5C12.134 15.5 11.8189 15.4686 11.3408 15.3955C10.9159 15.3305 10.3698 15.1658 9.69434 14.8857C9.03681 14.6132 8.27693 14.1973 7.41211 13.6318C6.56855 13.0803 5.65797 12.3146 4.68066 11.3262L4.67578 11.3223L4.12012 10.7549C3.59012 10.1959 3.13797 9.65945 2.7627 9.14551C2.25368 8.44834 1.84996 7.81159 1.54785 7.23438C1.24072 6.64759 1.01537 6.12633 0.868164 5.66895C0.714815 5.19246 0.615624 4.79494 0.564453 4.47266C0.509973 4.12943 0.493574 3.89008 0.501953 3.73926C0.509374 3.60568 0.512867 3.50006 0.515625 3.43457C0.530708 3.33611 0.565023 3.22761 0.623047 3.10742C0.679337 2.99082 0.738686 2.91391 0.794922 2.86328L0.804688 2.85449L3.06836 0.59082C3.14295 0.516258 3.20003 0.500042 3.25684 0.5Z" stroke="white"/>
</svg>
