<svg width="14" height="18" viewBox="0 0 14 18" fill="none" xmlns="http://www.w3.org/2000/svg">
<path fill-rule="evenodd" clip-rule="evenodd" d="M7.423 0C2.488 0 0 3.522 0 6.46C0 8.238 0.676 9.82 2.127 10.41C2.365 10.507 2.578 10.413 2.647 10.151C2.695 9.97 2.809 9.512 2.859 9.321C2.929 9.062 2.902 8.971 2.71 8.745C2.291 8.254 2.024 7.618 2.024 6.717C2.024 4.104 3.988 1.765 7.138 1.765C9.927 1.765 11.459 3.462 11.459 5.727C11.459 8.709 10.134 11.225 8.166 11.225C7.08 11.225 6.267 10.33 6.527 9.233C6.84 7.924 7.444 6.51 7.444 5.564C7.444 4.718 6.988 4.012 6.043 4.012C4.933 4.012 4.041 5.156 4.041 6.688C4.041 7.665 4.372 8.325 4.372 8.325C4.372 8.325 3.235 13.119 3.036 13.959C2.639 15.631 2.977 17.681 3.005 17.889C3.022 18.011 3.18 18.04 3.252 17.948C3.354 17.814 4.677 16.189 5.127 14.564C5.254 14.104 5.857 11.722 5.857 11.722C6.218 12.407 7.273 13.011 8.394 13.011C11.733 13.011 13.998 9.98 13.998 5.924C13.998 2.857 11.389 0 7.423 0Z" fill="white"/>
</svg>
