<svg width="21" height="16" viewBox="0 0 21 16" fill="none" xmlns="http://www.w3.org/2000/svg">
<path fill-rule="evenodd" clip-rule="evenodd" d="M21.008 1.895C20.235 2.217 19.404 2.432 18.533 2.53C19.423 2.03 20.106 1.238 20.428 0.296C19.594 0.758 18.672 1.094 17.69 1.276C16.905 0.49 15.784 0 14.545 0C12.165 0 10.234 1.809 10.234 4.039C10.234 4.356 10.272 4.665 10.346 4.96C6.764 4.791 3.588 3.183 1.462 0.74C1.091 1.337 0.879 2.03 0.879 2.771C0.879 4.171 1.64 5.409 2.796 6.133C2.09 6.111 1.426 5.93 0.844 5.627C0.844 5.645 0.844 5.66 0.844 5.679C0.844 7.636 2.329 9.268 4.301 9.639C3.94 9.731 3.558 9.779 3.166 9.779C2.888 9.779 2.618 9.755 2.355 9.709C2.903 11.312 4.495 12.481 6.381 12.514C4.906 13.597 3.048 14.242 1.028 14.242C0.68 14.242 0.337 14.223 0 14.186C1.907 15.331 4.173 16.001 6.607 16.001C14.535 16.001 18.87 9.845 18.87 4.508C18.87 4.332 18.865 4.159 18.857 3.985C19.699 3.415 20.43 2.704 21.008 1.895Z" fill="white"/>
</svg>
